Later,Live With Jools Holland (BBC2, Courtney Love, Mumford & Sons,)s36eo4[DTV-RIP-Divx]

First Shown On BBC 2 On Tuesday 4th May 2010


Description:

Joining Jools are London-based Mumford & Sons, who have been gradually accumulating fans and selling lots of copies of their debut album Sigh No More, from which they perform a few numbers.

Harpist Joanna Newsom returns to the studio to play a couple of songs from her recent acclaimed Have One On Me triple album; and Courtney Love and Hole make a welcome return to the studio for the first time since 1998 to perform tracks from their new album Nobody's Daughter.

Iggy Pop pops in to discuss the reissue of his incendiary classic album Raw Power, and Ozzy Osbourne is on hand to chat about his career. Finally, from Benin, West Africa, Angelique Kidjo performs numbers from her new album Oyo, which pays tribute to the music that inspired Angelique's childhood, such as classic songs by Curtis Mayfield and James Brown.

General

Complete name : Later, Live With Jools Holland.s36eo4.divx
Format : AVI
Format/Info : Audio Video Interleave
File size : 333 MiB
Duration : 29mn 41s
Overall bit rate : 1 566 Kbps

Video
ID : 0
Format : MPEG-4 Visual
Format settings, BVOP : Yes
Format settings, QPel : No
Format settings, GMC : No warppoints
Format settings, Matrix : Default (H.263)
Muxing mode : Packed bitstream
Codec ID : DX50
Codec ID/Hint : DivX 5
Duration : 29mn 41s
Bit rate : 1 300 Kbps
Width : 688 pixels
Height : 384 pixels
Display aspect ratio : 16:9
Frame rate : 25.000 fps
Resolution : 8 bits
Colorimetry : 4:2:0
Scan type : Progressive
Bits/(Pixel*Frame) : 0.197
Stream size : 276 MiB (83%)
Title : Video
Writing library : DivX 6.8.2 (UTC 2008-05-17)

Audio
ID : 1
Format : AC-3
Format/Info : Audio Coding 3
Codec ID : 2000
Duration : 29mn 40s
Bit rate mode : Constant
Bit rate : 256 Kbps
Channel(s) : 2 channels
Channel positions : Front: L R
Sampling rate : 48.0 KHz
Stream size : 54.3 MiB (16%)
Alignment : Split accross interleaves
Interleave, duration : 40 ms (1.00 video frame)
Interleave, preload duration : 500 ms 